<svg width="254" height="67" viewBox="0 0 254 67" fill="none" xmlns="http://www.w3.org/2000/svg">
<path d="M6.20842 3.94434V21.6072H2.71313V3.94434H6.20842ZM6.44138 12.2864L13.4319 3.94434H17.2068L9.8435 12.1466L17.067 21.6538H12.9192L6.44138 12.8457V12.3331V12.2864Z" fill="white"/>
<path d="M24.4767 19.1375C26.2942 19.1375 27.5992 18.2986 27.5992 16.9471C27.5992 15.316 25.5486 14.8499 23.2184 14.0111C20.8417 13.1722 18.7444 11.9606 18.7444 8.97793C18.7444 5.62246 21.5873 3.66504 24.9428 3.66504C27.1797 3.66504 29.0438 4.13113 30.2555 4.73698V7.85949C28.9972 7.06723 26.9933 6.50794 25.1757 6.50794C23.6378 6.50794 22.0999 7.16031 22.0999 8.46522C22.0999 9.81673 23.1718 10.376 25.3155 11.1217C27.9253 12.0071 30.9547 13.1256 30.9547 16.6209C30.9547 20.1162 27.8788 21.9338 24.1971 21.9338C22.4261 21.9338 20.6086 21.5609 18.9308 20.8618V17.7395C20.2823 18.4851 22.6126 19.0909 24.5233 19.0909L24.4767 19.1375Z" fill="white"/>
<path d="M42.1864 3.94434L48.0585 21.6072H44.2836L42.8853 16.8537H36.8268L35.1492 21.6072H31.7937L38.6911 3.94434H42.1864ZM42.1397 14.1041L41.6272 12.2398L40.3221 7.67272H40.1825L38.5512 12.2398L37.8523 14.1041H42.1397Z" fill="white"/>
<path d="M59.4763 3.66504C62.2725 3.66504 64.2299 4.36419 65.3018 4.78363V7.9993C63.5308 6.88081 61.3407 6.46129 59.43 6.46129C56.2609 6.46129 53.6509 8.55855 53.6509 12.5199C53.6509 16.8074 55.7947 19.0909 59.523 19.0909C60.3618 19.0909 61.0608 18.9977 61.8065 18.8579V12.4732H65.3018V20.256C63.3444 21.3278 61.3872 21.9338 59.0104 21.9338C53.3247 21.9338 49.9226 18.8113 49.9226 13.0324C49.9226 7.6264 53.5113 3.66504 59.43 3.66504H59.4763Z" fill="white"/>
<path d="M77.279 3.94434L83.1511 21.6072H79.3762L77.9782 16.8537H71.9198L70.2418 21.6072H66.8865L73.7837 3.94434H77.279ZM77.2324 14.1041L76.7198 12.2398L75.415 7.67272H75.2751L73.6441 12.2398L72.9449 14.1041H77.2324Z" fill="white"/>
<path d="M94.2892 3.66492C97.1321 3.66492 98.5302 4.22426 99.6021 4.6437V7.85937C97.8312 6.78748 96.1534 6.46117 94.2892 6.46117C91.1202 6.46117 88.8367 8.55842 88.8367 12.5197C88.8367 16.9471 91.12 19.0907 94.7085 19.0907C96.5726 19.0907 97.9707 18.7646 99.6485 17.7393V20.7219C98.763 21.2812 96.6194 21.887 94.2426 21.887C88.5569 21.887 85.1548 18.7645 85.1548 12.9857C85.1548 7.57963 88.4172 3.61841 94.3359 3.61841L94.2892 3.66492Z" fill="white"/>
<path d="M111.299 3.94434L117.171 21.6072H113.397L111.998 16.8537H105.94L104.262 21.6072H100.907L107.804 3.94434H111.299ZM111.206 14.1041L110.694 12.2398L109.389 7.67272H109.249L107.618 12.2398L106.919 14.1041H111.206Z" fill="white"/>
<path d="M182.137 24.1706H172.91C169.321 24.1706 166.339 21.0482 166.339 17.3199V7.81267C166.339 4.08437 169.321 0.961914 172.91 0.961914H182.137C185.726 0.961914 188.708 4.08437 188.708 7.81267V17.3199C188.708 21.0482 185.819 24.1706 182.137 24.1706ZM172.91 2.96584C170.44 2.96584 168.389 5.10961 168.389 7.76602V17.2732C168.389 19.9296 170.44 22.0734 173.003 22.0734H182.23C184.794 22.0734 186.844 19.9296 186.844 17.2732V7.76602C186.844 5.063 184.794 2.96584 182.23 2.96584H172.91Z" fill="white"/>
<path d="M177.523 18.5781C174.354 18.5781 171.791 15.8751 171.791 12.5662C171.791 9.25736 174.354 6.55444 177.523 6.55444C180.692 6.55444 183.255 9.25736 183.255 12.5662C183.348 15.7819 180.692 18.5781 177.523 18.5781ZM177.523 8.65153C175.472 8.65153 173.748 10.3759 173.748 12.6129C173.748 14.8499 175.379 16.5742 177.523 16.5742C179.667 16.5742 181.298 14.8499 181.298 12.6129C181.298 10.3759 179.667 8.65153 177.523 8.65153Z" fill="white"/>
<path d="M183.489 4.87671C184.281 4.87671 184.934 5.5292 184.934 6.36806C184.934 7.20693 184.281 7.85942 183.489 7.85942C182.697 7.85942 182.044 7.20693 182.044 6.36806C182.044 5.5292 182.697 4.87671 183.489 4.87671Z" fill="white"/>
<path d="M250.039 6.50747C250.039 6.50747 249.713 4.31713 248.78 3.33845C247.569 2.08015 246.218 2.08011 245.565 1.9869C241.091 1.66068 234.427 1.66064 234.427 1.66064C234.427 1.66064 227.716 1.66068 223.288 1.9869C222.683 2.08011 221.284 2.08015 220.073 3.33845C219.094 4.31713 218.814 6.50747 218.814 6.50747C218.814 6.50747 218.488 9.07061 218.488 11.6804V14.1039C218.488 16.6671 218.814 19.2769 218.814 19.2769C218.814 19.2769 219.141 21.4672 220.073 22.4459C221.284 23.7042 222.869 23.6576 223.568 23.7974C226.131 24.0304 234.427 24.1237 234.427 24.1237C234.427 24.1237 241.137 24.1237 245.611 23.7974C246.217 23.7042 247.615 23.7042 248.827 22.4459C249.806 21.4672 250.086 19.2769 250.086 19.2769C250.086 19.2769 250.412 16.7137 250.412 14.1039V11.6804C250.412 9.11722 250.086 6.50747 250.086 6.50747H250.039ZM231.118 16.9933V8.04534L239.74 12.5194L231.118 16.9933Z" fill="white"/>
<path d="M205.672 24.823H200.732V12.8925H198.262V8.79131H200.732V6.32132C200.732 2.96585 202.13 0.961914 206.092 0.961914H209.401V5.06307H207.35C205.812 5.06307 205.719 5.62234 205.719 6.69423V8.74466H209.447L209.028 12.8458H205.719V24.7764L205.672 24.823Z" fill="white"/>
<path d="M157.204 21.747L149.561 10.6087L148.676 9.35034L143.223 1.38114L142.757 0.72876H136.046L137.677 3.10545L144.948 13.6846L145.833 14.9428L151.659 23.4248L152.124 24.0771H158.835L157.204 21.7004V21.747ZM152.917 22.6324L146.858 13.8244L145.973 12.566L138.936 2.31327H141.965L147.651 10.6087L148.536 11.867L155.946 22.6324H152.917Z" fill="white"/>
<path d="M145.972 12.5198L146.858 13.778L145.833 14.9898L137.957 24.1241H136L144.947 13.7314L145.972 12.5198Z" fill="white"/>
<path d="M158.043 0.775391L149.561 10.6554L148.536 11.8205L147.651 10.5622L148.676 9.39711L154.455 2.68616L156.086 0.775391H158.043Z" fill="white"/>
<path d="M7.32686 56.2805L11.5212 56.6067C15.2961 56.8863 16.9739 58.1913 16.9739 60.7079C16.9739 63.7837 13.4785 66.3002 9.00453 66.3002C5.04321 66.3002 2.71313 64.7624 2.71313 62.4322C2.71313 60.9875 4.01793 59.8224 5.50925 58.9369L3.78493 58.7504V56.7465L6.34822 54.4163C4.67049 53.8105 3.36551 52.6454 3.36551 50.6414C3.36551 47.9384 6.25493 46.0742 9.47059 46.0742C10.9153 46.0742 12.3134 46.3538 13.3853 46.9131L17.5331 46.1675V48.6375H15.2029C15.4825 49.1968 15.669 49.8025 15.669 50.455C15.669 53.0648 12.593 54.8357 9.6104 54.8357C9.23757 54.8357 8.86478 54.8357 8.49195 54.8357L7.37351 56.1873L7.32686 56.2805ZM6.58118 61.7332C6.58118 62.7584 7.42002 63.6904 9.6104 63.6904C11.8008 63.6904 13.0592 62.5253 13.0592 61.3602C13.0592 60.335 12.593 59.7757 10.1696 59.4495L8.3055 59.2632C7.23361 59.9622 6.58118 60.8477 6.58118 61.7332ZM9.33079 48.4977C7.97928 48.4977 7.14041 49.2432 7.14041 50.5481C7.14041 51.9463 8.11913 52.692 9.51724 52.692C10.7755 52.692 11.661 51.8531 11.661 50.6414C11.661 49.1967 10.7289 48.4977 9.33079 48.4977Z" fill="white"/>
<path d="M23.545 60.1949C21.2148 60.1949 19.6301 58.7968 19.6301 56.5598C19.6301 53.8102 22.1934 52.4586 26.0615 52.4586H27.5528V51.5266C27.5528 49.8955 26.5275 49.5226 25.0362 49.5226C23.5449 49.5226 21.8206 49.8489 20.4225 50.2217V47.0526C21.6808 46.5865 23.9644 46.1672 25.6887 46.1672C29.0442 46.1672 31.3277 47.1925 31.3277 50.781V56.7462L31.8869 59.9619H28.0189L27.7858 58.7035C26.8537 59.4026 25.2693 60.1949 23.4983 60.1949M27.5528 54.3229H26.1548C24.4304 54.3229 23.405 54.7422 23.405 55.9539C23.405 57.0724 24.1973 57.6317 25.3158 57.6317C26.0148 57.6317 26.8538 57.3521 27.5995 57.0258V54.3229H27.5528Z" fill="white"/>
<path d="M42.1395 46.1672C43.8172 46.1672 45.0288 46.3535 46.054 46.773V50.1284C44.9356 49.5692 43.8639 49.4294 42.8387 49.4294C40.7881 49.4294 39.0635 50.2218 39.0635 53.1578C39.0635 55.8608 40.6949 57.0258 43.1183 57.0258C44.0503 57.0258 45.029 56.8394 46.0077 56.42V59.4027C45.0756 59.9153 43.5377 60.1949 41.6736 60.1949C37.3394 60.1949 35.1489 57.7249 35.1489 53.5306C35.1489 49.3362 37.6189 46.1672 42.1395 46.1672Z" fill="white"/>
<path d="M52.9051 60.1949C50.5749 60.1949 48.9902 58.7968 48.9902 56.5598C48.9902 53.8102 51.5535 52.4586 55.4216 52.4586H56.9129V51.5266C56.9129 49.8955 55.8877 49.5226 54.3964 49.5226C52.9983 49.5226 51.1809 49.8489 49.8294 50.2217V47.0526C51.0877 46.5865 53.371 46.1672 55.0953 46.1672C58.4508 46.1672 60.7811 47.1925 60.7811 50.781V56.7462L61.2937 59.9619H57.4255L57.1925 58.7035C56.2139 59.4026 54.676 60.1949 52.9051 60.1949ZM56.9129 54.3229H55.5149C53.7905 54.3229 52.7651 54.7422 52.7651 55.9539C52.7651 57.0724 53.5575 57.6317 54.676 57.6317C55.3751 57.6317 56.2139 57.3521 56.9129 57.0258V54.3229Z" fill="white"/>
<path d="M67.0724 55.6746C68.4705 55.6746 69.3559 56.7464 69.3559 58.0047C69.3559 59.0766 68.4239 60.1486 67.0724 60.1486C65.7209 60.1486 64.7422 59.1232 64.7422 58.0047C64.7422 56.7931 65.7209 55.6746 67.0724 55.6746Z" fill="white"/>
<path d="M76.8594 56.2805L81.0535 56.6067C84.8284 56.8863 86.5064 58.1913 86.5064 60.7079C86.5064 63.7837 83.011 66.3002 78.537 66.3002C74.5757 66.3002 72.292 64.7624 72.292 62.4322C72.292 60.9875 73.5971 59.8224 75.0884 58.9369L73.3174 58.7504V56.7465L75.8806 54.4163C74.2028 53.8105 72.8979 52.6454 72.8979 50.6414C72.8979 47.9384 75.7873 46.0742 79.0029 46.0742C80.4477 46.0742 81.8459 46.3538 82.9178 46.9131L87.0656 46.1675V48.6375H84.7354C85.015 49.1968 85.2013 49.8025 85.2013 50.455C85.2013 53.0648 82.1255 54.8357 79.1429 54.8357C78.7701 54.8357 78.3973 54.8357 78.0244 54.8357L76.906 56.1873L76.8594 56.2805ZM76.1135 61.7332C76.1135 62.7584 76.9525 63.6904 79.1429 63.6904C81.3333 63.6904 82.5915 62.5253 82.5915 61.3602C82.5915 60.335 82.1255 59.7757 79.7021 59.4495L77.8379 59.2632C76.766 59.9622 76.1135 60.8477 76.1135 61.7332ZM78.8633 48.4977C77.5118 48.4977 76.6728 49.2432 76.6728 50.5481C76.6728 51.9463 77.6515 52.692 79.0496 52.692C80.3079 52.692 81.1935 51.8531 81.1935 50.6414C81.1935 49.1967 80.2614 48.4977 78.8633 48.4977Z" fill="white"/>
<path d="M95.8277 46.1672C100.208 46.1672 102.492 48.3109 102.492 53.0645C102.492 57.119 99.8356 60.1949 95.5014 60.1949C91.1673 60.1949 89.0234 57.958 89.0234 53.4374C89.0234 49.3363 91.6797 46.1672 95.8741 46.1672M95.781 49.1965C93.6373 49.1965 92.9383 51.0139 92.9383 53.2043C92.9383 55.5345 93.6373 57.3055 95.781 57.3055C97.9248 57.3055 98.6238 55.4413 98.6238 53.2043C98.6238 51.1071 98.1112 49.1965 95.781 49.1965Z" fill="white"/>
<path d="M108.783 46.447L110.694 52.9715L111.533 56.0007H111.719L112.651 52.9249L114.748 46.447H118.803L113.63 59.9154H109.203L104.542 46.447H108.783Z" fill="white"/>
<path d="M123.556 55.6746C124.954 55.6746 125.84 56.7464 125.84 58.0047C125.84 59.0766 124.908 60.1486 123.556 60.1486C122.205 60.1486 121.226 59.1232 121.226 58.0047C121.226 56.7931 122.205 55.6746 123.556 55.6746Z" fill="white"/>
<path d="M129.429 56.42C131.572 57.1657 133.157 57.3986 134.509 57.3986C135.674 57.3986 136.652 56.9326 136.652 56.1404C136.652 55.2083 135.254 54.9287 133.623 54.5559C131.433 54.0432 129.336 53.1578 129.336 50.5014C129.336 47.845 132.039 46.1206 135.115 46.1206C136.746 46.1206 138.517 46.3536 139.822 47.0061V50.0353C137.911 49.1964 136.466 49.0567 135.254 49.0567C134.042 49.0567 133.157 49.4761 133.157 50.1751C133.157 51.1072 134.509 51.4334 136.047 51.7596C138.051 52.2257 140.381 52.9713 140.381 55.8608C140.381 58.7502 137.584 60.1484 134.369 60.1484C132.551 60.1484 130.92 59.8221 129.429 59.3561V56.3733V56.42Z" fill="white"/>
<path d="M147.092 60.1949C144.761 60.1949 143.177 58.7968 143.177 56.5598C143.177 53.8102 145.74 52.4586 149.608 52.4586H151.146V51.5266C151.146 49.8955 150.121 49.5226 148.629 49.5226C147.138 49.5226 145.414 49.8489 144.016 50.2217V47.0526C145.274 46.5865 147.557 46.1672 149.282 46.1672C152.637 46.1672 154.921 47.1925 154.921 50.781V56.7462L155.434 59.9619H151.565L151.332 58.7035C150.4 59.4026 148.816 60.1949 147.045 60.1949M151.099 54.3229H149.701C147.977 54.3229 146.952 54.7422 146.952 55.9539C146.952 57.0724 147.744 57.6317 148.863 57.6317C149.562 57.6317 150.4 57.3521 151.099 57.0258V54.3229Z" fill="white"/>
<path d="M205.859 48.6375L202.597 49.1967V46.68L207.443 45.282H209.494V60.568H205.859V48.6375Z" fill="white"/>
<path d="M220.213 54.1832C219.328 54.6027 218.162 54.9756 216.811 54.9756C214.248 54.9756 212.197 53.5308 212.197 50.4084C212.197 47.2859 214.434 45.0024 218.069 45.0024C221.984 45.0024 223.662 47.752 223.662 52.0862C223.662 57.0728 221.192 60.801 216.624 60.801C215.599 60.801 214.201 60.6613 213.176 60.2418V57.4922C214.388 58.0981 215.506 58.1912 216.484 58.1912C218.628 58.1912 219.84 57.0261 220.213 54.1832ZM220.306 52.0862C220.306 49.0569 219.56 47.4724 217.929 47.4724C216.531 47.4724 215.553 48.4977 215.553 50.1754C215.553 51.8531 216.485 52.692 217.883 52.692C218.815 52.692 219.654 52.4124 220.353 52.1328L220.306 52.0862Z" fill="white"/>
<path d="M232.656 49.9424C232.656 48.5909 231.491 47.7521 230.139 47.7521C228.974 47.7521 227.716 47.9385 226.085 49.057V46.3539C227.436 45.3752 229.207 44.9558 230.885 44.9558C233.635 44.9558 236.105 46.3073 236.105 49.3366C236.105 51.993 233.774 55.162 230.466 57.5854V57.6785H236.384V60.5681H225.852V58.3311C229.44 55.4882 232.656 52.4124 232.656 49.8958V49.9424Z" fill="white"/>
<path d="M246.45 54.1832C245.565 54.6027 244.4 54.9756 243.048 54.9756C240.485 54.9756 238.435 53.5308 238.435 50.4084C238.435 47.2859 240.672 45.0024 244.307 45.0024C248.221 45.0024 249.899 47.752 249.899 52.0862C249.899 57.0728 247.429 60.801 242.862 60.801C241.837 60.801 240.439 60.6613 239.413 60.2418V57.4922C240.625 58.0981 241.743 58.1912 242.722 58.1912C244.866 58.1912 246.077 57.0261 246.45 54.1832ZM246.544 52.0862C246.544 49.0569 245.798 47.4724 244.167 47.4724C242.769 47.4724 241.79 48.4977 241.79 50.1754C241.79 51.8531 242.722 52.692 244.12 52.692C245.052 52.692 245.891 52.4124 246.59 52.1328L246.544 52.0862Z" fill="white"/>
<path d="M189.874 51.0141C189.874 48.1247 187.451 45.4683 184.375 45.0955C184.328 45.0955 184.235 45.0955 184.188 45.0955C184.048 45.0955 183.862 45.0488 183.722 45.0488C183.116 45.0488 182.93 45.4682 182.883 45.7479C182.883 45.9809 182.883 46.214 183.023 46.4004C183.209 46.68 183.582 46.7265 183.908 46.7731C184.002 46.7731 184.095 46.7731 184.141 46.7731C186.891 47.379 187.823 48.3577 188.289 51.0608C188.289 51.1074 188.289 51.2005 188.289 51.2937C188.289 51.6199 188.336 52.319 189.081 52.319C189.081 52.319 189.221 52.319 189.268 52.319C189.967 52.2258 189.921 51.5733 189.921 51.2937C189.921 51.2005 189.921 51.1074 189.921 51.0608L189.874 51.0141Z" fill="white"/>
<path d="M183.535 44.0235C183.535 44.0235 183.675 44.0235 183.768 44.0235C188.289 44.7225 190.339 46.8664 190.945 51.387C190.945 51.4802 190.945 51.5734 190.945 51.6666C190.945 52.0394 190.945 52.7384 191.737 52.785C191.97 52.785 192.204 52.6919 192.343 52.5521C192.576 52.2724 192.576 51.8995 192.576 51.6199C192.576 51.5267 192.576 51.4801 192.576 51.4335C192.623 46.7731 188.615 42.5787 183.955 42.3923C183.955 42.3923 183.955 42.3923 183.908 42.3923C183.908 42.3923 183.908 42.3923 183.861 42.3923C183.861 42.3923 183.768 42.3923 183.675 42.3923C183.582 42.3923 183.535 42.3923 183.442 42.3923C182.696 42.3923 182.557 42.9051 182.557 43.2313C182.557 43.977 183.209 44.0235 183.535 44.0235Z" fill="white"/>
<path d="M190.666 57.3056C190.666 57.3056 190.48 57.1659 190.386 57.0726C189.874 56.6532 189.361 56.3269 188.848 55.9541C188.755 55.8609 188.615 55.8143 188.522 55.7211C187.87 55.2551 187.31 55.0221 186.751 55.0221C186.006 55.0221 185.353 55.4414 184.841 56.2337C184.608 56.6065 184.328 56.7464 183.955 56.7464C183.769 56.7464 183.489 56.6997 183.256 56.5599C181.159 55.6279 179.668 54.1366 178.829 52.2258C178.409 51.2937 178.549 50.6879 179.295 50.1752C179.714 49.8956 180.46 49.3829 180.413 48.3576C180.367 47.2391 177.85 43.7905 176.778 43.4176C176.312 43.2312 175.846 43.2312 175.38 43.4176C174.168 43.8371 173.283 44.5361 172.863 45.4682C172.444 46.4003 172.444 47.4722 172.91 48.5907C174.215 51.8064 176.079 54.6492 178.409 56.9794C180.693 59.2629 183.489 61.1271 186.751 62.5252C187.031 62.665 187.357 62.7117 187.59 62.7583C187.684 62.7583 187.73 62.7583 187.777 62.7583C187.777 62.7583 187.823 62.7583 187.87 62.7583C189.408 62.7583 191.225 61.3601 191.785 59.7756C192.297 58.3775 191.365 57.6784 190.666 57.1192V57.3056Z" fill="white"/>
<path d="M184.188 47.7517C183.908 47.7517 183.395 47.7517 183.209 48.3109C183.116 48.5906 183.116 48.7769 183.209 48.9633C183.349 49.2429 183.675 49.3361 183.955 49.3827C184.98 49.5691 185.492 50.1284 185.632 51.1537C185.679 51.6663 186.005 51.9927 186.425 51.9927C186.425 51.9927 186.471 51.9927 186.518 51.9927C187.03 51.9461 187.264 51.5731 187.264 50.8741C187.264 50.175 186.891 49.3362 186.285 48.7303C185.632 48.0779 184.887 47.7051 184.188 47.7517Z" fill="white"/>
<path d="M253.814 33.6775H0.103027V34.7494H253.814V33.6775Z" fill="white"/>
</svg>
